<?xml version="1.0" standalone="no"?>
<!DOCTYPE svg PUBLIC "-//W3C//DTD SVG 20010904//EN"
 "http://www.w3.org/TR/2001/REC-SVG-20010904/DTD/svg10.dtd">
<svg version="1.0" xmlns="http://www.w3.org/2000/svg"
 width="260.000000pt" height="260.000000pt" viewBox="0 0 260.000000 260.000000"
 preserveAspectRatio="xMidYMid meet">
<metadata>
Created by potrace 1.11, written by Peter Selinger 2001-2013
</metadata>
<g transform="translate(0.000000,260.000000) scale(0.100000,-0.100000)"
fill="#000000" stroke="none">
<path d="M585 1607 c-39 -13 -71 -43 -84 -77 -7 -23 -6 -30 6 -34 27 -11 53
-6 53 9 0 27 38 55 74 55 39 0 76 -37 76 -75 0 -29 -51 -94 -145 -183 -67 -65
-76 -77 -73 -105 l3 -31 120 1 c175 2 165 0 162 23 -2 11 -6 23 -10 26 -4 4
-50 7 -103 6 l-97 0 90 91 c102 104 114 122 115 177 1 90 -92 148 -187 117z"/>
<path d="M1022 1605 c-91 -28 -151 -103 -157 -197 -9 -152 88 -252 244 -250
69 1 150 25 152 46 0 6 1 55 2 109 l2 98 -80 -3 -80 -3 -1 -28 c-1 -27 1 -28
35 -26 20 2 41 0 48 -4 6 -4 11 -31 11 -61 0 -53 -1 -55 -32 -63 -129 -31
-230 40 -230 162 0 104 64 170 164 170 41 -1 64 -6 86 -22 l31 -22 21 24 c15
18 18 26 9 33 -53 42 -153 59 -225 37z"/>
<path d="M1482 1599 c-23 -11 -44 -30 -48 -41 -12 -38 -6 -88 14 -114 l19 -27
-43 -42 c-39 -36 -44 -47 -44 -84 0 -24 8 -56 17 -71 38 -65 158 -79 227 -26
27 20 37 23 43 13 16 -27 52 -43 87 -39 l34 4 -48 50 -48 50 39 61 c33 54 36
63 21 68 -35 12 -74 -18 -96 -76 -2 -5 -22 8 -44 29 l-41 40 38 33 c22 18 42
46 45 61 20 94 -77 158 -172 111z m110 -63 c16 -23 -29 -96 -59 -96 -20 0 -45
46 -41 77 6 49 72 62 100 19z m-34 -218 c56 -58 56 -75 3 -98 -89 -37 -158 65
-87 127 15 13 29 23 31 23 1 0 26 -23 53 -52z"/>
<path d="M1790 1578 c0 -28 0 -28 70 -28 l70 0 0 -193 0 -193 27 2 c15 0 29 8
32 17 3 9 5 95 5 192 l-2 175 69 0 c69 0 69 0 69 28 l0 27 -170 0 -170 1 0
-28z"/>
<path d="M1634 1045 c-21 -54 -15 -72 14 -43 9 9 15 9 24 0 7 -7 18 -12 25
-12 10 0 8 11 -7 41 -12 23 -19 47 -16 55 3 8 0 14 -7 14 -7 0 -22 -25 -33
-55z"/>
<path d="M471 1066 c-10 -11 -7 -19 11 -37 17 -16 19 -20 6 -16 -12 4 -18 1
-18 -8 0 -9 10 -15 24 -15 33 0 41 34 12 54 -18 13 -19 15 -3 15 9 1 17 6 17
11 0 15 -36 12 -49 -4z"/>
<path d="M557 1062 c-27 -29 -8 -72 32 -72 39 0 57 23 45 58 -12 34 -53 41
-77 14z m56 -21 c6 -24 0 -31 -25 -31 -11 0 -18 7 -18 18 0 36 34 45 43 13z"/>
<path d="M666 1073 c-3 -3 -6 -24 -6 -45 0 -36 2 -38 30 -38 33 0 41 15 11 23
-13 3 -18 12 -16 31 3 26 -7 41 -19 29z"/>
<path d="M742 1038 c3 -38 6 -43 30 -46 32 -4 53 27 44 64 -9 36 -26 29 -26
-11 0 -24 -5 -35 -15 -35 -10 0 -15 11 -15 35 0 19 -5 35 -11 35 -6 0 -9 -17
-7 -42z"/>
<path d="M851 1066 c-7 -8 -11 -27 -9 -43 3 -30 33 -42 66 -27 13 6 10 8 -13
13 -35 7 -44 46 -11 46 11 0 21 6 24 13 5 17 -43 16 -57 -2z"/>
<path d="M938 1068 c-6 -50 -3 -78 9 -78 10 0 13 13 12 45 -3 41 -17 63 -21
33z"/>
<path d="M998 1069 c-21 -12 -24 -49 -6 -67 21 -21 68 -15 77 11 19 50 -24 84
-71 56z m50 -38 c-2 -9 -11 -17 -21 -19 -21 -4 -35 27 -17 38 19 12 42 0 38
-19z"/>
<path d="M1098 1053 c-5 -36 1 -63 13 -63 5 0 9 10 10 23 l0 22 16 -22 c26
-38 43 -29 43 22 0 25 -4 45 -10 45 -5 0 -10 -12 -10 -27 l-1 -28 -17 28 c-9
15 -22 27 -28 27 -7 0 -13 -12 -16 -27z"/>
<path d="M1208 1053 c-6 -49 1 -63 33 -63 16 0 29 5 29 10 0 6 -10 10 -22 10
-12 0 -18 3 -14 8 4 4 13 7 19 7 5 0 12 6 15 14 3 10 0 12 -11 8 -9 -3 -19 -2
-22 3 -4 6 3 10 14 10 12 0 21 5 21 10 0 6 -13 10 -29 10 -24 0 -29 -5 -33
-27z"/>
<path d="M1299 1064 c-11 -14 -10 -19 10 -35 23 -19 23 -19 2 -19 -12 0 -21
-4 -21 -10 0 -15 57 -12 62 3 7 18 -2 37 -18 37 -8 0 -14 5 -14 10 0 6 5 9 11
8 6 -2 14 3 16 10 7 18 -32 15 -48 -4z"/>
<path d="M1436 1064 c-34 -34 -9 -78 41 -72 27 3 29 8 24 48 0 5 -8 7 -17 3
-8 -3 -13 -12 -10 -19 3 -8 -1 -14 -8 -14 -19 0 -27 25 -13 39 6 6 19 11 29
11 10 0 18 5 18 10 0 16 -47 12 -64 -6z"/>
<path d="M1530 1035 c0 -25 5 -45 10 -45 6 0 10 8 10 18 1 16 1 16 14 0 14
-18 36 -24 36 -10 0 4 -5 13 -12 20 -9 9 -9 12 0 12 18 0 15 37 -4 44 -42 16
-54 8 -54 -39z m45 15 c3 -5 -1 -10 -9 -10 -9 0 -16 5 -16 10 0 6 4 10 9 10 6
0 13 -4 16 -10z"/>
<path d="M1728 1073 c-4 -7 -3 -52 1 -75 2 -14 21 -8 21 6 0 7 10 17 23 21
l22 8 -22 4 c-13 2 -23 9 -23 14 0 5 6 9 13 7 7 -2 14 2 15 7 3 12 -44 20 -50
8z"/>
<path d="M1808 1058 c-5 -31 2 -68 13 -68 5 0 9 20 9 45 0 46 -16 63 -22 23z"/>
<path d="M1871 1071 c-18 -12 -22 -58 -6 -71 16 -14 62 -9 55 5 -3 5 -12 8
-21 7 -9 -2 -19 4 -22 12 -6 16 15 38 31 34 5 -2 12 2 14 7 4 13 -33 18 -51 6z"/>
<path d="M1962 1038 c-10 -24 -14 -45 -9 -47 5 -2 13 2 17 9 6 9 12 9 30 0 12
-6 24 -10 26 -7 7 7 -27 87 -37 87 -4 0 -17 -19 -27 -42z"/>
<path d="M2057 1074 c-14 -15 -6 -41 16 -52 l22 -11 -22 0 c-32 -1 -29 -21 2
-21 36 0 44 28 14 52 -17 13 -19 18 -7 16 9 -2 18 2 20 7 4 12 -35 19 -45 9z"/>
</g>
</svg>
